<svg xmlns="http://www.w3.org/2000/svg">
  <symbol id="ic-camera" viewBox="0 0 512 512">
    <path d="m476 481l-446 0c-17 0-30-13-30-30l0-306c0-16 13-30 30-30l67 0c6 0 11-3 13-7l41-76c5-10 15-15 26-15l151 0c11 0 21 5 26 15l41 76c3 4 8 7 13 7l68 0c16 0 29 14 29 30l0 306c0 17-13 30-29 30z m-402-60l357 0c8 0 15-6 15-14l0-217c0-9-7-15-15-15l-49 0c-11 0-21-6-27-16l-40-75c-3-5-8-8-13-8l-98 0c-6 0-11 3-13 8l-41 75c-5 10-15 16-26 16l-50 0c-8 0-15 6-15 15l0 217c0 8 7 14 15 14z m183-52c-55 0-98-43-98-97 0-54 43-97 98-97 54 0 98 43 98 97 0 54-44 97-98 97z m0-135c-22 0-39 17-39 38 0 21 17 38 39 38 21 0 38-17 38-38 0-21-17-38-38-38z"/>
  </symbol>
</svg>